# xmcd
# 
# Track frame offsets:
#     150
#     47342
#     81072
#     102862
#     168540
#     206415
#     247340
#     294340
# 
# Disc length: 4352
# 
# Revision: 0
# Processed by: cddbd v1.5.2PL0 Copyright (c) Steve Scherf et al.
# Submitted via: BonkEnc v1.0
# 
DISCID=6710fe08
DTITLE=Grachan Moncur III - Mosaic Select CD1
DYEAR=0
DGENRE=Jazz
TTITLE0=Saturday And Sunday
TTITLE1=Frankenstein
TTITLE2=Blue Rondo
TTITLE3=Ghost Town
TTITLE4=Love And Hate
TTITLE5=Esoteric
TTITLE6=Kahlil The Prophet
TTITLE7=Riff Raff
EXTD=
EXTT0=
EXTT1=
EXTT2=
EXTT3=
EXTT4=
EXTT5=
EXTT6=
EXTT7=
PLAYORDER=
